<?xml version="1.0" encoding="iso-8859-1"?>
<!-- Generator: Adobe Illustrator 19.0.0, SVG Export Plug-In . SVG Version: 6.00 Build 0)  -->
<svg version="1.1" id="Layer_1" xmlns="http://www.w3.org/2000/svg" xmlns:xlink="http://www.w3.org/1999/xlink" x="0px" y="0px"
	 viewBox="0 0 512 512" style="enable-background:new 0 0 512 512;" xml:space="preserve">
<path style="fill:#F00000;" d="M256,0C114.616,0,0,114.616,0,256s114.616,256,256,256s256-114.616,256-256S397.384,0,256,0z"/>
<path d="M424,191.032v129.936c0,23.096-18.896,42-42,42H130c-23.096,0-42-18.904-42-42V191.032c0-23.104,18.904-42,42-42h252
	C405.104,149.032,424,167.928,424,191.032z"/>
<g>
	<circle style="fill:#FFFFFF;" cx="107.8" cy="256" r="7.872"/>
	<path style="fill:#FFFFFF;" d="M408.432,238.2v35.608c0,4.92-3.984,8.904-8.904,8.904s-8.904-3.984-8.904-8.904V238.2
		c0-4.92,3.984-8.904,8.904-8.904S408.432,233.28,408.432,238.2z"/>
</g>
<path style="fill:#666666;" d="M367,172.12v167.752H135.648V172.12H367 M375,164.12H127.648v183.752H375V164.12L375,164.12z"/>
<polygon style="fill:#F00000;" points="218.76,227.608 207.808,195.208 179.464,195.208 179.464,186.544 214.024,186.544 
	226.96,224.832 "/>
<polygon style="fill:#FFFFFF;" points="197.752,220.336 317.976,220.336 295.064,284.624 217.776,284.624 "/>
<g>
	<circle style="fill:#F00000;" cx="231.288" cy="308.768" r="16.672"/>
	<circle style="fill:#F00000;" cx="281.6" cy="308.768" r="16.672"/>
</g>
<g>
</g>
<g>
</g>
<g>
</g>
<g>
</g>
<g>
</g>
<g>
</g>
<g>
</g>
<g>
</g>
<g>
</g>
<g>
</g>
<g>
</g>
<g>
</g>
<g>
</g>
<g>
</g>
<g>
</g>
</svg>
